<?xml version="1.0" encoding="utf-8"?>
<!-- Generator: Adobe Illustrator 19.2.1, SVG Export Plug-In . SVG Version: 6.00 Build 0)  -->
<svg version="1.1" id="Layer_1" xmlns="http://www.w3.org/2000/svg" xmlns:xlink="http://www.w3.org/1999/xlink" x="0px" y="0px"
	 viewBox="0 0 45 61.8" style="enable-background:new 0 0 45 61.8;" xml:space="preserve">
<style type="text/css">
	.st0{fill:#00E9C9;}
</style>
<polygon class="st0" points="9.8,48.1 11.1,45.1 12.6,40.8 15,36.9 17.6,33.7 21.1,30.4 24.7,26.8 26.2,24.8 27,22.8 27.6,19.5 
	28.1,16.9 28.2,15.4 28.8,13.6 28.8,13.6 30.2,11.6 31.4,10.4 34.9,8.7 36.3,8.7 37,9 37.1,7.2 37.3,6.2 37.6,5.3 38.4,4 39.7,3.1 
	41.3,2.7 42.6,2.9 43,3.5 43,4.1 42.4,4.6 41.1,4.9 38.7,5.7 37.5,7.1 37.3,9 37.5,9.5 38.8,10.5 39.3,11.4 39.9,12.5 40.9,13.6 
	41.3,14.6 40.8,14.3 39.5,14.3 39.3,14.6 36.9,17.4 37.4,18.7 37.8,19.2 40.3,23.7 42.3,29.1 42.9,32.2 42.9,32.9 42.9,33.4 
	42.9,33.9 42.9,33.9 42.8,34.8 42.8,34.8 42.7,35.3 42.6,36.3 42.6,36.7 42.5,37.3 42.5,37.4 42.5,37.4 42.4,37.6 42.3,38 
	41.9,39.1 41.7,39.4 41.4,40.4 41.3,40.6 40.8,41.7 40.8,42.1 40.7,42.1 40.1,42.9 40.1,43 39.8,43.5 39.6,43.8 38.7,45.1 38.1,46 
	37.6,46.9 33.3,50.1 31.1,50.8 29.1,51.4 27.5,51.9 30.2,56.3 31.4,56.6 33.1,57.4 35.4,57.2 36.9,56.9 38.1,57.2 38.3,57.3 
	39.2,57.7 39.9,58.6 38.8,57.9 37.9,58 37.6,58.2 36.5,58.2 35.4,58.4 32.9,58.6 30.8,58.3 29.1,58.9 28.3,58.4 26.3,58.4 
	26.1,58.3 25.3,58.8 25.7,58.2 26.3,57.5 26.7,57.3 28.4,57.2 28.8,56.6 26.1,52 26.6,52 22.4,52.2 18.3,51.9 11.1,54 6.2,56.2 
	4.5,58.3 1.8,59.7 "/>
</svg>
